# xmcd CD database file
#
# Track frame offsets:
# 150
# 9598
# 68054
# 88350
# 108910
# 130934
# 157830
# 179494
# 199334
#
# Disc length: 2968 seconds
#
# Revision: 0
# Processed by: cddbd v1.4b41PL1 Copyright (c) Steve Scherf et al.
# Submitted via: jack 2.2.0
#
DISCID=760b9609
DTITLE=Van Morrison - One More Time ... One More Time
DYEAR=1900
DGENRE=
TTITLE0=Mix And DJ
TTITLE1=Days Like This - Fire In The Belly - DJ - Cleaning Windows
TTITLE2=DJ - Vanlose Stairway (BK) - DJ - Trans Euro Train
TTITLE3=It Once Was My Life
TTITLE4=DJ - Satisfied
TTITLE5=DJ - Sometimes We Cry - Time Signal
TTITLE6=Burning Ground
TTITLE7=The Healing Game
TTITLE8=DJ - See me Through - Soldier Of Fortune - Thank You - DJ
EXTD=This is a non official CD
EXTT0=Festival Womand '97
EXTT1=M80 Radio
EXTT2=Location: Maspalomas (Islands Canarias)
EXTT3=Espana 97/11/15
EXTT4=
EXTT5=
EXTT6=
EXTT7=
EXTT8=
PLAYORDER=
